<?xml version="1.0" encoding="utf-8"?>
<!-- Generator: Adobe Illustrator 19.0.1, SVG Export Plug-In . SVG Version: 6.00 Build 0)  -->
<svg version="1.1" id="Layer_1" xmlns="http://www.w3.org/2000/svg" xmlns:xlink="http://www.w3.org/1999/xlink" x="0px" y="0px"
	 viewBox="0 0 512 512" enable-background="new 0 0 512 512" xml:space="preserve">
<g>
	<g>
		<g>
			<g>
				<g>
					<rect x="26.8" y="150.7" fill="#58595B" width="10.1" height="223.1"/>
				</g>
			</g>
			<g>
				<g>
					<rect x="21.8" y="148.1" fill="#58595B" width="20.3" height="228.3"/>
				</g>
			</g>
		</g>
	</g>
	<g>
		<g>
			<g>
				<g>
					<path fill="#58595B" d="M34.7,384.5c7.4-1.3,12.4-4.9,12.4-8.9V150.7H36.9L34.7,384.5L34.7,384.5z"/>
				</g>
			</g>
			<g>
				<g>
					<path fill="#58595B" d="M31.9,148.1h20.2v227.4c0,5.2-6.4,9.7-15.8,11.4L31.9,148.1z M42,153.3l-2.2,226
						c1.4-1.1,2.2-2.4,2.2-3.8L42,153.3z"/>
				</g>
			</g>
		</g>
	</g>
	<g>
		<g>
			<g>
				<g>
					<polygon fill="#58595B" points="31.1,366 16,379.7 31.1,383 					"/>
				</g>
			</g>
			<g>
				<g>
					<polygon fill="#58595B" points="36.2,386.9 8.7,381 36.2,356.1 					"/>
				</g>
			</g>
		</g>
		<g>
			<g>
				<g>
					<path fill="#58595B" d="M36.9,382.7v-17c0-1.2-1.5-2.2-3.8-2.5c-2.2-0.3-4.5,0.2-5.7,1.2l-15.2,13.7c-0.7,0.6-0.9,1.4-0.4,2.1
						c0.5,0.7,1.5,1.3,2.8,1.6l15.2,3.3c1.6,0.3,3.4,0.2,4.8-0.2C36.1,384.3,36.9,383.5,36.9,382.7z"/>
				</g>
			</g>
			<g>
				<g>
					<path fill="#58595B" d="M29,387.5c-0.6,0-18.7-0.3-21.9-6.4c-0.7-1.5-0.6-3,0.8-4.3c0,0,13.2-9.5,13.9-13.7
						c0.7-4.2,8.3-3,12.7-2.4c4.4,0.6,7.5,2.7,7.5,5.1l9.1,9.5c0,1.7-3.8,8.3-6.6,9.3C42.8,385,37.4,387.8,29,387.5z M31.9,365.7
						l-15.2,13.7l15.2,3.3V365.7z"/>
				</g>
			</g>
		</g>
	</g>
	<g>
		<g>
			<g>
				<g>
					<polygon fill="#58595B" points="485.1,342.1 469.9,355.8 485.1,359.1 					"/>
				</g>
			</g>
			<g>
				<g>
					<polygon fill="#58595B" points="490.2,363 462.7,357.1 490.2,332.3 					"/>
				</g>
			</g>
		</g>
		<g>
			<g>
				<g>
					<path fill="#58595B" d="M490.9,358.8v-17c0-1.2-1.5-2.2-3.8-2.5c-2.2-0.3-4.5,0.2-5.7,1.2l-15.2,13.7c-0.7,0.6-0.9,1.4-0.4,2.1
						c0.5,0.7,1.5,1.3,2.8,1.6l15.2,3.3c1.6,0.3,3.4,0.2,4.8-0.2C490,360.5,490.9,359.6,490.9,358.8z"/>
				</g>
			</g>
			<g>
				<g>
					<path fill="#58595B" d="M482.9,363.6c-0.6,0-18.7-0.3-21.9-6.4c-0.7-1.5-0.6-3,0.8-4.3c0,0,13.2-9.5,13.9-13.7
						c0.7-4.2,8.3-3,12.7-2.4c4.4,0.6,7.5,2.7,7.5,5.1l9.1,9.5c0,1.7-3.8,8.3-6.6,9.3C496.8,361.1,491.3,363.9,482.9,363.6z
						 M485.8,341.8l-15.2,13.7l15.2,3.3V341.8z"/>
				</g>
			</g>
		</g>
	</g>
	<g>
		<g>
			<g>
				<g>
					<g>
						<rect x="480" y="150.7" fill="#58595B" width="10.1" height="197.2"/>
					</g>
				</g>
				<g>
					<g>
						<rect x="475" y="148.1" fill="#58595B" width="20.3" height="202.5"/>
					</g>
				</g>
			</g>
		</g>
		<g>
			<g>
				<g>
					<g>
						<path fill="#58595B" d="M487.9,358.6c7.4-1.3,12.4-4.9,12.4-8.9v-199h-10.1L487.9,358.6L487.9,358.6z"/>
					</g>
				</g>
				<g>
					<g>
						<path fill="#58595B" d="M482.8,362.3l2.3-214.2h20.2v201.6c0,5.2-6.4,9.7-15.8,11.4L482.8,362.3z M495.2,153.3L493,353.5
							c1.4-1.1,2.2-2.4,2.2-3.8L495.2,153.3z"/>
					</g>
				</g>
			</g>
		</g>
	</g>
	<g>
		<g>
			<g>
				<line fill="#58595B" x1="26.8" y1="153.2" x2="504.5" y2="153.2"/>
			</g>
		</g>
		<g>
			<g>
				<rect x="26.8" y="148.1" fill="#58595B" width="477.7" height="10.1"/>
			</g>
		</g>
	</g>
	<g>
		<g>
			<path fill="#58595B" stroke="#000000" stroke-width="12" stroke-miterlimit="10" d="M47.1,146.3"/>
		</g>
	</g>
	<g>
		<g>
			<polygon fill="#58595B" points="43.4,154.3 31.7,138.3 31.7,154.3 			"/>
		</g>
		<g>
			<path fill="#58595B" d="M43.4,164.4H31.7c-5.6,0-9.9-4.5-9.9-10.1v-19.7c0-4.4,2.6-8.3,6.8-9.6c4.2-1.4,8.7,0.1,11.3,3.7
				l11.7,19.7C53.8,151.4,47.2,164.4,43.4,164.4z"/>
		</g>
	</g>
	<g>
		<g>
			<line fill="#58595B" x1="263.6" y1="154.3" x2="263.6" y2="363.6"/>
		</g>
		<g>
			<rect x="248.4" y="154.3" fill="#58595B" width="30.4" height="209.3"/>
		</g>
	</g>
</g>
</svg>
