<?xml version="1.0" encoding="utf-8"?>
<!-- Generator: Adobe Illustrator 19.0.1, SVG Export Plug-In . SVG Version: 6.00 Build 0)  -->
<svg version="1.1" id="Layer_1" xmlns="http://www.w3.org/2000/svg" xmlns:xlink="http://www.w3.org/1999/xlink" x="0px" y="0px"
	 viewBox="0 0 512 512" enable-background="new 0 0 512 512" xml:space="preserve">
<g>
	<g>
		<g>
			<g>
				<g>
					<rect x="87.8" y="178.7" fill="#6D6E71" width="7.4" height="163.7"/>
				</g>
			</g>
			<g>
				<g>
					<rect x="84.1" y="176.8" fill="#6D6E71" width="14.9" height="167.5"/>
				</g>
			</g>
		</g>
	</g>
	<g>
		<g>
			<g>
				<g>
					<path fill="#6D6E71" d="M93.6,350.3c5.4-1,9.1-3.6,9.1-6.5v-165h-7.4L93.6,350.3L93.6,350.3z"/>
				</g>
			</g>
			<g>
				<g>
					<path fill="#6D6E71" d="M91.6,176.8h14.8v166.9c0,3.8-4.7,7.1-11.6,8.4L91.6,176.8z M98.9,180.6l-1.6,165.8
						c1-0.8,1.6-1.8,1.6-2.8L98.9,180.6z"/>
				</g>
			</g>
		</g>
	</g>
	<g>
		<g>
			<g>
				<g>
					<polygon fill="#6D6E71" points="91,336.7 79.8,346.8 91,349.2 					"/>
				</g>
			</g>
			<g>
				<g>
					<polygon fill="#6D6E71" points="94.7,352 74.5,347.7 94.7,329.5 					"/>
				</g>
			</g>
		</g>
		<g>
			<g>
				<g>
					<path fill="#6D6E71" d="M95.2,348.9v-12.5c0-0.9-1.1-1.6-2.8-1.9c-1.6-0.2-3.3,0.1-4.2,0.9l-11.1,10.1
						c-0.5,0.5-0.6,1.1-0.3,1.6c0.3,0.5,1.1,0.9,2.1,1.2l11.1,2.4c1.1,0.2,2.5,0.2,3.5-0.2C94.6,350.2,95.2,349.6,95.2,348.9z"/>
				</g>
			</g>
			<g>
				<g>
					<path fill="#6D6E71" d="M89.4,352.5c-0.5,0-13.8-0.2-16-4.7c-0.5-1.1-0.5-2.2,0.6-3.1c0,0,9.7-7,10.2-10.1
						c0.5-3.1,6.1-2.2,9.3-1.8c3.2,0.4,5.5,2,5.5,3.7l6.7,7c0,1.3-2.8,6.1-4.9,6.8C99.6,350.7,95.6,352.7,89.4,352.5z M91.5,336.5
						l-11.2,10.1l11.2,2.4V336.5z"/>
				</g>
			</g>
		</g>
	</g>
	<g>
		<g>
			<g>
				<g>
					<polygon fill="#6D6E71" points="424.1,319.2 413,329.2 424.1,331.6 					"/>
				</g>
			</g>
			<g>
				<g>
					<polygon fill="#6D6E71" points="427.8,334.5 407.6,330.2 427.8,312 					"/>
				</g>
			</g>
		</g>
		<g>
			<g>
				<g>
					<path fill="#6D6E71" d="M428.4,331.4V319c0-0.9-1.1-1.6-2.8-1.9c-1.6-0.2-3.3,0.1-4.2,0.9l-11.1,10.1c-0.5,0.5-0.6,1.1-0.3,1.6
						c0.3,0.5,1.1,0.9,2.1,1.2l11.1,2.4c1.1,0.2,2.5,0.2,3.5-0.2S428.4,332.1,428.4,331.4z"/>
				</g>
			</g>
			<g>
				<g>
					<path fill="#6D6E71" d="M422.5,335c-0.5,0-13.8-0.2-16-4.7c-0.5-1.1-0.5-2.2,0.6-3.1c0,0,9.7-7,10.2-10.1s6.1-2.2,9.3-1.8
						c3.2,0.4,5.5,2,5.5,3.7l6.7,7c0,1.3-2.8,6.1-4.9,6.8C432.7,333.1,428.7,335.2,422.5,335z M424.6,319L413.5,329l11.2,2.4V319z"
						/>
				</g>
			</g>
		</g>
	</g>
	<g>
		<g>
			<g>
				<g>
					<g>
						<rect x="420.4" y="178.7" fill="#6D6E71" width="7.4" height="144.7"/>
					</g>
				</g>
				<g>
					<g>
						<rect x="416.7" y="176.8" fill="#6D6E71" width="14.9" height="148.6"/>
					</g>
				</g>
			</g>
		</g>
		<g>
			<g>
				<g>
					<g>
						<path fill="#6D6E71" d="M426.2,331.3c5.4-1,9.1-3.6,9.1-6.5v-146h-7.4L426.2,331.3L426.2,331.3z"/>
					</g>
				</g>
				<g>
					<g>
						<path fill="#6D6E71" d="M422.4,334l1.7-157.2H439v147.9c0,3.8-4.7,7.1-11.6,8.4L422.4,334z M431.5,180.6l-1.6,146.9
							c1-0.8,1.6-1.8,1.6-2.8L431.5,180.6z"/>
					</g>
				</g>
			</g>
		</g>
	</g>
	<g>
		<g>
			<g>
				<line fill="#6D6E71" x1="87.8" y1="180.5" x2="438.4" y2="180.5"/>
			</g>
		</g>
		<g>
			<g>
				<rect x="87.8" y="176.8" fill="#6D6E71" width="350.6" height="7.4"/>
			</g>
		</g>
	</g>
	<g>
		<g>
			<path fill="#6D6E71" stroke="#000000" stroke-width="12" stroke-miterlimit="10" d="M102.7,175.5"/>
		</g>
	</g>
	<g>
		<g>
			<polygon fill="#6D6E71" points="100,181.4 91.4,169.6 91.4,181.4 			"/>
		</g>
		<g>
			<path fill="#6D6E71" d="M100,188.8h-8.6c-4.1,0-7.3-3.3-7.3-7.4v-14.5c0-3.2,1.9-6.1,5-7.1c3.1-1,6.4,0.1,8.3,2.7L106,177
				C107.6,179.2,102.8,188.8,100,188.8z"/>
		</g>
	</g>
	<g>
		<g>
			<line fill="#6D6E71" x1="261.5" y1="181.4" x2="261.5" y2="335"/>
		</g>
		<g>
			<rect x="250.4" y="181.4" fill="#6D6E71" width="22.3" height="153.6"/>
		</g>
	</g>
</g>
</svg>
