<?xml version="1.0" encoding="utf-8"?>
<!-- Generator: Adobe Illustrator 21.0.2, SVG Export Plug-In . SVG Version: 6.00 Build 0)  -->
<svg version="1.1" xmlns="http://www.w3.org/2000/svg" xmlns:xlink="http://www.w3.org/1999/xlink" x="0px" y="0px"
	 viewBox="0 0 1000 193.8" style="enable-background:new 0 0 1000 193.8;" xml:space="preserve">
<style type="text/css">
	.st0{fill:#6D6D6D;}
	.st1{display:none;}
	.st2{display:inline;}
	.st3{fill:none;stroke:#6D6D6D;stroke-width:1.5;stroke-miterlimit:10;}
</style>
<g id="wordmark">
	<g>
		<path class="st0" d="M187.7,117v1.2h-22V117l6.3-1.5V76.7h-0.5l-16.2,41.5h-1.9l-17-41.5h-0.5v38.2l6,2.2v1.2h-14.6V117l6-2.2
			V75.2l-6-1.7v-1.2h17.4l2.8,7.4l10.1,25.8h0.4l9.9-25.8l2.7-7.4h17.3v1.2l-6.7,1.5v40.4L187.7,117z"/>
		<path class="st0" d="M227.2,117v1.2h-22.6V117l6.8-1.5V75.1l-6.8-1.5v-1.2h22.6v1.2l-6.8,1.5v40.4L227.2,117z"/>
		<path class="st0" d="M284.7,116c-1.2,0.5-2.3,1-3.4,1.4c-1.1,0.4-2.3,0.8-3.5,1c-1.2,0.3-2.5,0.5-3.8,0.6
			c-1.3,0.1-2.8,0.2-4.5,0.2c-3.7,0-7.1-0.6-10.1-1.7c-3-1.1-5.6-2.7-7.8-4.8c-2.2-2.1-3.8-4.5-5-7.4c-1.2-2.9-1.8-6.1-1.8-9.7
			c0-3.3,0.6-6.5,1.9-9.4c1.2-3,3-5.6,5.2-7.8c2.2-2.2,4.8-4,7.9-5.3c3-1.3,6.4-1.9,10-1.9c1.8,0,3.7,0.2,5.7,0.6
			c2,0.4,3.7,0.9,5.1,1.7l2.8-2.4h0.9l0.8,16.4l-1.4,0.1c-4.2-9.3-9.5-13.9-15.9-13.9c-1.6,0-3.1,0.4-4.6,1.2
			c-1.5,0.8-2.9,2-4.1,3.6c-1.2,1.7-2.2,3.8-3,6.4c-0.7,2.6-1.1,5.8-1.1,9.6c0,3.5,0.4,6.6,1.2,9.4c0.8,2.7,2,5,3.4,6.9
			c1.5,1.9,3.2,3.3,5.2,4.2c2,1,4.2,1.4,6.6,1.4c1.1,0,2-0.1,2.8-0.2c0.8-0.1,1.7-0.3,2.6-0.6l8.4-10.8l0.9,0.3L284.7,116z"/>
		<path class="st0" d="M340.7,75.1l-6.3-1.5v-1.2h22v1.2l-6.7,1.5v40.4l6.7,1.5v1.2h-22V117l6.3-1.5V95.8h-21.6v19.7l6.3,1.5v1.2
			h-22V117l6.7-1.5V75.1l-6.7-1.5v-1.2h22v1.2l-6.3,1.5V93h21.6V75.1z"/>
		<path class="st0" d="M416.9,117v1.2h-21.7V117l6.4-1.5l-4.8-13.4h-14.3l-4.7,13l5,1.9v1.2H369V117l5-2.2l16.8-42.9h4l16.3,43.2
			L416.9,117z M389.7,82.4h-0.1l-6.1,17.1h12.5L389.7,82.4z"/>
		<path class="st0" d="M468.7,86.3l-1,0.4l-5.6-7c-0.7-0.8-1.3-1.5-1.8-2.1c-0.5-0.6-1.1-1.1-1.7-1.5c-0.6-0.4-1.3-0.7-2.2-0.9
			c-0.8-0.2-1.8-0.3-3-0.3l-7.9-0.1v19.1h3.2c1.1,0,2-0.1,2.7-0.3c0.7-0.2,1.4-0.6,2-1c0.6-0.5,1.1-1.1,1.5-1.9
			c0.4-0.8,0.8-1.8,1.2-3l0.7-2.4h1.3v19.7h-1.3l-0.7-2.2c-0.4-1.2-0.8-2.1-1.2-3c-0.4-0.8-0.9-1.5-1.5-2c-0.6-0.5-1.2-0.9-2-1.1
			c-0.7-0.2-1.6-0.3-2.7-0.3h-3.2v19.2l10.7-0.2c1,0,1.9-0.1,2.7-0.3c0.8-0.2,1.5-0.5,2.1-0.8c0.6-0.4,1.2-0.8,1.7-1.3
			s1-1.1,1.6-1.8l6-7.8l1.1,0.3l-1.7,14.5h-39.9V117l6.7-1.5V75.1l-6.7-1.5v-1.2h37.6L468.7,86.3z"/>
		<path class="st0" d="M525.5,118.2h-37.6V117l6.7-1.5V75.1l-6.7-1.5v-1.2h22.4v1.2l-6.7,1.5v40.7l8.6-0.1c1,0,1.9-0.1,2.7-0.3
			c0.8-0.2,1.5-0.5,2.1-0.8c0.6-0.4,1.2-0.8,1.7-1.3c0.5-0.5,1.1-1.2,1.6-1.9l6.2-8.1l0.9,0.3L525.5,118.2z"/>
		<path class="st0" d="M611.7,106.6h0.1l8.7-30.5l-5-2.4v-1.2h13.7v1.2l-4.8,2.2l-14.3,42.8h-2.4L596,85.5h-0.1l-12.5,33.1h-2.5
			l-13.6-43.2l-6-1.9v-1.2h21.4v1.2l-5.8,1.5l8.6,31.5h0.1l9.1-25.5l-1.8-5.7l-5.1-1.9v-1.2h20.3v1.2l-6,1.5L611.7,106.6z"/>
		<path class="st0" d="M686.7,104.5c-1.1,2.9-2.6,5.5-4.5,7.7c-2,2.2-4.4,3.9-7.2,5.2c-2.9,1.3-6.1,1.9-9.7,1.9
			c-3.7,0-7-0.6-9.9-1.9c-2.8-1.3-5.2-3-7.1-5.2c-1.9-2.2-3.3-4.8-4.2-7.7c-0.9-2.9-1.4-6-1.4-9.3c0-3.2,0.5-6.3,1.5-9.2
			c1-2.9,2.5-5.5,4.5-7.7c2-2.2,4.4-3.9,7.2-5.2c2.8-1.3,6-1.9,9.6-1.9c3.8,0,7.1,0.6,9.9,1.9c2.8,1.3,5.2,3,7.1,5.2
			c1.9,2.2,3.3,4.8,4.2,7.7c0.9,2.9,1.4,6,1.4,9.2C688.3,98.5,687.8,101.6,686.7,104.5z M677.2,85.6c-0.7-2.8-1.7-5.1-2.9-6.9
			c-1.2-1.8-2.7-3.2-4.3-4.1c-1.6-0.9-3.3-1.4-5.1-1.4c-1.7,0-3.3,0.4-4.7,1.1c-1.5,0.7-2.7,2-3.8,3.7c-1.1,1.7-1.9,4-2.6,6.8
			c-0.6,2.8-1,6.3-1,10.4c0,4.1,0.4,7.6,1.1,10.4c0.7,2.8,1.7,5.1,3,6.8s2.7,3,4.3,3.7c1.6,0.7,3.3,1.1,5.1,1.1
			c1.6,0,3.2-0.5,4.6-1.4c1.5-0.9,2.7-2.3,3.9-4.1c1.1-1.8,2-4.1,2.6-6.9c0.6-2.7,0.9-6,0.9-9.6C678.2,91.6,677.9,88.4,677.2,85.6z"
			/>
		<path class="st0" d="M750,104.5c-1.1,2.9-2.6,5.5-4.5,7.7c-2,2.2-4.4,3.9-7.2,5.2c-2.9,1.3-6.1,1.9-9.7,1.9c-3.7,0-7-0.6-9.9-1.9
			c-2.8-1.3-5.2-3-7.1-5.2c-1.9-2.2-3.3-4.8-4.2-7.7c-0.9-2.9-1.4-6-1.4-9.3c0-3.2,0.5-6.3,1.5-9.2c1-2.9,2.5-5.5,4.5-7.7
			c2-2.2,4.4-3.9,7.2-5.2c2.8-1.3,6-1.9,9.6-1.9c3.8,0,7.1,0.6,9.9,1.9c2.8,1.3,5.2,3,7.1,5.2c1.9,2.2,3.3,4.8,4.2,7.7
			c0.9,2.9,1.4,6,1.4,9.2C751.6,98.5,751.1,101.6,750,104.5z M740.4,85.6c-0.7-2.8-1.7-5.1-2.9-6.9c-1.2-1.8-2.7-3.2-4.3-4.1
			c-1.6-0.9-3.3-1.4-5.1-1.4c-1.7,0-3.3,0.4-4.7,1.1c-1.5,0.7-2.7,2-3.8,3.7c-1.1,1.7-1.9,4-2.6,6.8c-0.6,2.8-1,6.3-1,10.4
			c0,4.1,0.4,7.6,1.1,10.4c0.7,2.8,1.7,5.1,3,6.8s2.7,3,4.3,3.7c1.6,0.7,3.3,1.1,5.1,1.1c1.6,0,3.2-0.5,4.6-1.4
			c1.5-0.9,2.7-2.3,3.9-4.1c1.1-1.8,2-4.1,2.6-6.9c0.6-2.7,0.9-6,0.9-9.6C741.5,91.6,741.2,88.4,740.4,85.6z"/>
		<path class="st0" d="M768.5,73.6v-1.2h22.1c4.1,0,7.7,0.6,10.9,1.8c3.2,1.2,5.8,2.8,8,4.8c2.2,2,3.8,4.5,4.9,7.3
			c1.1,2.8,1.7,5.8,1.7,9c0,3.3-0.6,6.3-1.8,9.1c-1.2,2.8-3,5.2-5.2,7.3c-2.3,2-5,3.6-8.1,4.8c-3.2,1.2-6.7,1.8-10.7,1.8h-21.7V117
			l6.7-1.5V75.1L768.5,73.6z M804.7,86c-0.8-2.5-2-4.6-3.5-6.2c-1.5-1.6-3.3-2.8-5.3-3.5c-2.1-0.7-4.3-1.2-6.7-1.3l-5-0.1v41
			l6.6-0.1c2.3,0,4.3-0.4,6.2-1.2c1.9-0.7,3.5-1.9,4.8-3.6c1.3-1.6,2.4-3.7,3.1-6.3c0.7-2.5,1.1-5.6,1.1-9.3
			C806,91.6,805.5,88.5,804.7,86z"/>
		<path class="st0" d="M858.1,96.8v18.4l6.9,1.8v1.2h-22.8V117l6.9-1.8V98.6l-13.5-22.9l-5.9-2.1v-1.2h22v1.2l-5.8,1.7l10.4,19.2
			l10-18.8l-4.8-2.2v-1.2h15v1.2l-5.3,2.2L858.1,96.8z"/>
	</g>
</g>
<g id="graphic_element" class="st1">
	<g class="st2">
		<line class="st3" x1="430.3" y1="194.1" x2="494.7" y2="281"/>
		<line class="st3" x1="467.8" y1="194.1" x2="532.2" y2="281"/>
		<line class="st3" x1="505.3" y1="194.1" x2="569.7" y2="281"/>
	</g>
</g>
</svg>
