<?xml version="1.0" encoding="utf-8"?>
<!-- Generator: Adobe Illustrator 19.0.1, SVG Export Plug-In . SVG Version: 6.00 Build 0)  -->
<svg version="1.1" id="Layer_1" xmlns="http://www.w3.org/2000/svg" xmlns:xlink="http://www.w3.org/1999/xlink" x="0px" y="0px"
	 viewBox="0 0 915.1 573.6" enable-background="new 0 0 915.1 573.6" xml:space="preserve">
<g>
	<g>
		<g>
			<g>
				<g>
					<rect x="181.8" y="50.3" fill="#808285" width="11.5" height="253.3"/>
				</g>
			</g>
			<g>
				<g>
					<rect x="176" y="47.3" fill="#808285" width="23" height="259.2"/>
				</g>
			</g>
		</g>
	</g>
	<g>
		<g>
			<g>
				<g>
					<path fill="#808285" d="M190.7,315.7c8.4-1.5,14.1-5.5,14.1-10.1V50.3h-11.5L190.7,315.7L190.7,315.7z"/>
				</g>
			</g>
			<g>
				<g>
					<path fill="#808285" d="M187.5,47.3h23v258.2c0,5.9-7.2,11.1-18,12.9L187.5,47.3z M199,53.3l-2.5,256.6
						c1.6-1.2,2.5-2.7,2.5-4.3L199,53.3z"/>
				</g>
			</g>
		</g>
	</g>
	<g>
		<g>
			<g>
				<g>
					<polygon fill="#808285" points="186.7,294.7 169.4,310.3 186.7,314 					"/>
				</g>
			</g>
			<g>
				<g>
					<polygon fill="#808285" points="192.4,318.4 161.2,311.7 192.4,283.5 					"/>
				</g>
			</g>
		</g>
		<g>
			<g>
				<g>
					<path fill="#808285" d="M193.3,313.6v-19.3c0-1.3-1.8-2.5-4.3-2.9c-2.5-0.3-5.2,0.2-6.5,1.4l-17.2,15.6c-0.8,0.7-1,1.6-0.4,2.4
						c0.5,0.8,1.7,1.5,3.2,1.8l17.2,3.7c1.8,0.4,3.8,0.3,5.4-0.3C192.3,315.5,193.3,314.6,193.3,313.6z"/>
				</g>
			</g>
			<g>
				<g>
					<path fill="#808285" d="M184.2,319.1c-0.7,0-21.3-0.3-24.8-7.3c-0.8-1.7-0.7-3.4,0.9-4.9c0,0,14.9-10.8,15.8-15.6
						c0.8-4.8,9.4-3.4,14.5-2.8c5,0.7,8.5,3,8.5,5.7l10.3,10.8c0,2-4.3,9.4-7.5,10.5C200,316.3,193.8,319.4,184.2,319.1z
						 M187.5,294.3l-17.3,15.6l17.3,3.7V294.3z"/>
				</g>
			</g>
		</g>
	</g>
	<g>
		<g>
			<g>
				<g>
					<polygon fill="#808285" points="702.1,267.6 684.8,283.1 702.1,286.9 					"/>
				</g>
			</g>
			<g>
				<g>
					<polygon fill="#808285" points="707.8,291.3 676.6,284.6 707.8,256.4 					"/>
				</g>
			</g>
		</g>
		<g>
			<g>
				<g>
					<path fill="#808285" d="M708.6,286.5v-19.3c0-1.3-1.8-2.5-4.3-2.9c-2.5-0.3-5.2,0.2-6.5,1.4l-17.2,15.6c-0.8,0.7-1,1.6-0.4,2.4
						c0.5,0.8,1.7,1.5,3.2,1.8l17.2,3.7c1.8,0.4,3.8,0.3,5.4-0.3C707.7,288.4,708.6,287.5,708.6,286.5z"/>
				</g>
			</g>
			<g>
				<g>
					<path fill="#808285" d="M699.6,292c-0.7,0-21.3-0.3-24.8-7.3c-0.8-1.7-0.7-3.4,0.9-4.9c0,0,14.9-10.8,15.8-15.6
						s9.4-3.4,14.5-2.8c5,0.7,8.5,3,8.5,5.7l10.3,10.8c0,2-4.3,9.4-7.5,10.5C715.3,289.2,709.1,292.3,699.6,292z M702.9,267.2
						l-17.3,15.6l17.3,3.7V267.2z"/>
				</g>
			</g>
		</g>
	</g>
	<g>
		<g>
			<g>
				<g>
					<g>
						<rect x="696.3" y="50.3" fill="#808285" width="11.5" height="223.9"/>
					</g>
				</g>
				<g>
					<g>
						<rect x="690.6" y="47.3" fill="#808285" width="23" height="229.9"/>
					</g>
				</g>
			</g>
		</g>
		<g>
			<g>
				<g>
					<g>
						<path fill="#808285" d="M705.3,286.3c8.4-1.5,14.1-5.5,14.1-10.1V50.3h-11.5L705.3,286.3L705.3,286.3z"/>
					</g>
				</g>
				<g>
					<g>
						<path fill="#808285" d="M699.5,290.5l2.6-243.2h23v228.9c0,5.9-7.2,11.1-18,12.9L699.5,290.5z M713.5,53.3l-2.5,227.2
							c1.6-1.2,2.5-2.7,2.5-4.3L713.5,53.3z"/>
					</g>
				</g>
			</g>
		</g>
	</g>
	<g>
		<g>
			<g>
				<line fill="#808285" x1="181.8" y1="53.1" x2="724.1" y2="53.1"/>
			</g>
		</g>
		<g>
			<g>
				<rect x="181.8" y="47.3" fill="#808285" width="542.3" height="11.5"/>
			</g>
		</g>
	</g>
	<g>
		<g>
			<path fill="#808285" stroke="#000000" stroke-width="12" stroke-miterlimit="10" d="M204.8,45.3"/>
		</g>
	</g>
	<g>
		<g>
			<polygon fill="#808285" points="200.6,54.4 187.3,36.2 187.3,54.4 			"/>
		</g>
		<g>
			<path fill="#808285" d="M200.6,65.9h-13.3c-6.4,0-11.3-5.1-11.3-11.5V32c0-5,3-9.4,7.7-10.9c4.7-1.5,9.9,0.1,12.9,4.1l13.3,22.4
				C212.4,51.1,204.9,65.9,200.6,65.9z"/>
		</g>
	</g>
	<g>
		<g>
			<line fill="#808285" x1="450.5" y1="54.4" x2="450.5" y2="292"/>
		</g>
		<g>
			<rect x="433.3" y="54.4" fill="#808285" width="34.5" height="237.7"/>
		</g>
	</g>
	<g>
		<g>
			<path fill="#808285" d="M416.6,238.2"/>
		</g>
	</g>
</g>
<g>
	<path fill="#808285" d="M95.7,429.3v2.1H69.4v-2.1l9.2-1.5v-46h-1l-19.7,49.6h-3.6l-19.5-49.6h-1V427l7.5,2.3v2.1H22.3v-2.1
		l7.5-2.3v-45.6l-7.5-1.7v-2.1h19.5l3.1,8.7l12.8,34.4h1.3L72,386.3l3.2-8.7h20.5v2.1l-9.2,1.5v46.5L95.7,429.3z"/>
	<path fill="#808285" d="M139.3,429.3v2.1h-26.9v-2.1l9.5-1.5v-46.5l-9.5-1.5v-2.1h26.9v2.1l-9.5,1.5v46.5L139.3,429.3z"/>
	<path fill="#808285" d="M203.5,428.2c-5.4,2.9-9.8,4.5-17.5,4.5c-17,0-28.8-11-28.8-27.6c0-17,13.2-28.7,28.5-28.7
		c4.3,0,9.2,1.2,12.8,2.6l2.8-2.9h1.8l0.7,18.1l-1.8,0.2c-4.8-9.5-10-15.3-18-15.3c-10,0-17.6,9.1-17.6,25.1
		c0,17.2,9.6,25.3,21.2,25.3c2.5,0,4.7-0.4,6.7-1.3l9.6-11.6l1.2,0.3L203.5,428.2z"/>
	<path fill="#808285" d="M270.2,381.3l-8.8-1.5v-2.1h25.9v2.1l-9.2,1.5v46.5l9.2,1.5v2.1h-25.9v-2.1l8.8-1.5v-22.5h-29.5v22.5
		l8.8,1.5v2.1h-25.9v-2.1l9.2-1.5v-46.5l-9.2-1.5v-2.1h25.9v2.1l-8.8,1.5v20.5h29.5V381.3z"/>
	<path fill="#808285" d="M357,429.3v2.1h-23.5v-2.1l8.4-1.5l-5.7-15.6h-19.7l-5.5,15.1l6.6,2v2.1h-17.5v-2.1l6.8-2.3l19.1-49.9h4.9
		l19.2,50.2L357,429.3z M326.7,385.9h-0.7l-8.3,23h17.3L326.7,385.9z"/>
	<path fill="#808285" d="M414.8,391.9l-1.2,0.6l-6-7.2c-2.9-3.5-4.1-4.2-9.4-4.2h-11v21.7h5.3c5.1,0,6.9-1.6,8.5-7.5l0.8-2.8h1.7
		v23.6h-1.7l-0.8-2.6c-1.7-5.9-3.5-7.6-8.5-7.6h-5.3v22h14.9c5,0,6.2-0.5,8.4-3.6l6.8-9.4l1.3,0.3l-2.3,16.3h-46.2v-2.1l9.2-1.5
		v-46.5l-9.2-1.5v-2.1h42.6L414.8,391.9z"/>
	<path fill="#808285" d="M479.3,431.4h-44.5v-2.1l9.2-1.5v-46.5l-9.2-1.5v-2.1h26.8v2.1l-9.6,1.5v46.6h13c5,0,6.1-1.4,8.4-4.5
		l6.9-9.4l1.2,0.3L479.3,431.4z"/>
	<path fill="#808285" d="M585.2,420.7h0.2l12.5-38.6l-6.8-2.4v-2.1h17.5v2.1l-7,2.4l-17,49.8h-3L567,392.2h-0.2l-15.7,39.8h-3
		l-16.7-50.2l-7.4-1.9v-2.1h24.1v2.1l-8.3,1.5l12,39.3h0.2l13-33.8l-1.9-5.1l-6.9-1.9v-2.1h23v2.1l-7.8,1.5L585.2,420.7z"/>
	<path fill="#808285" d="M647.3,432.7c-17,0-25.8-12.9-25.8-28.2c0-15.2,10.1-28.1,26.3-28.1c17,0,25.8,12.9,25.8,28.1
		C673.6,419.8,663.5,432.7,647.3,432.7z M646.6,378.8c-7.8,0-15.9,6-15.9,25.7s9.4,25.8,17.8,25.8c7.8,0,16-8.2,16-25.8
		C664.4,386.9,655,378.8,646.6,378.8z"/>
	<path fill="#808285" d="M717.7,432.7c-17,0-25.8-12.9-25.8-28.2c0-15.2,10.1-28.1,26.3-28.1c17,0,25.8,12.9,25.8,28.1
		C744,419.8,733.9,432.7,717.7,432.7z M717,378.8c-7.8,0-15.9,6-15.9,25.7s9.4,25.8,17.8,25.8c7.8,0,15.9-8.2,15.9-25.8
		C734.8,386.9,725.5,378.8,717,378.8z"/>
	<path fill="#808285" d="M761.1,379.8v-2.1h26.5c18.4,0,29.1,11.6,29.1,26.8c0,15.3-12,26.9-29.6,26.9h-26v-2.1l9.2-1.5v-46.5
		L761.1,379.8z M785.9,380.9h-7.7v47.3h9.5c11.3,0,19.7-6.2,19.7-23.7C807.5,387,797.9,380.9,785.9,380.9z"/>
	<path fill="#808285" d="M859.9,407.6v20.2l9.8,1.5v2.1h-27.5v-2.1l9.8-1.5V409l-17.3-27.3l-7.4-1.9v-2.1h24v2.1l-7.7,1.5l14.6,24.1
		l14.2-23.5l-7.4-2v-2.1h18.7v2.1l-6.7,2.3L859.9,407.6z"/>
</g>
</svg>
